<?xml version="1.0" encoding="UTF-8"?>
<svg id="Layer_1" data-name="Layer 1" xmlns="http://www.w3.org/2000/svg" viewBox="0 0 1080 1080">
  <defs>
    <style>
      .cls-1 {
        fill: #fff;
      }
    </style>
  </defs>
  <path class="cls-1" d="M431.58,948.09c-19.66,16.75-49.06,35.29-73.17,42.38-8.67,2.55-17.26,6.15-26.31,6.47-10.61.38-20.5.39-31.09-.15-5.57-.28-12.14-3.68-16.45-7.35-6.16-5.24-6.69-18.01.2-22.15,6.41-3.85,11.67-6.69,16.26-12.32,12.49-15.34,23.16-34.17,28.66-53.15l6.31-21.77c1.06-3.66-1.84-6.76-4.9-6.88-4.33-.17-7.96-1.02-11.96-2.11s-8.43-1.66-12.64-2.6l-11.5-2.58c-35.81-8.05-80.36-27.06-111.58-47.45-25.32-16.54-47.7-38.14-64.22-63.32-11.48-17.48-22.66-47.67-26.68-68.03-3.16-16.04-6.09-35.54-6.79-51.81-13-5.87-24.41-14.6-33.09-25.91-8.16-10.64-15.4-21.41-19.94-34.03-2.3-6.39-6.38-23.6-6.94-30.39-2.02-24.44-.28-45.14,8.29-67.96,6.72-17.91,18.22-34.91,32.31-47.57,10.67-9.58,22.9-16.43,35.82-22.29,1.37-.62,5-1.01,5.21-2.33.73-5.3,1.71-10.2,2.9-15.18l3.51-14.7,3.55-14.3,3.55-13.61,3.41-12.46,4.25-14.68,3.33-10.78,3.65-11.24,11.55-31.9c3.97-10.96,16.09-39.46,21.48-49.47,7.86-14.62,15.96-28.66,26.08-41.92l11.19-14.66c12.79-16.76,30.39-33.25,48.93-43.28,38.25-20.67,77.48-22.6,114.21,2.52,5.19.02,10.82-2.23,15.77-3.29l18.21-3.88c5.38-1.15,11.02-2.43,16.43-3.27l21.66-3.38c5.24-.82,10.69-.81,16.09-1.36l26.83-2.78,21.53-.74c11.75-.4,23.32-.16,35.17.08l49.23.96c-3.33-.06,43.64,4.37,40.82,3.85,14.61,2.7,17.04,2.22,31.6,5.01,4.81.92,9.88,1.38,14.71,2.46l12.69,2.84c16.7,3.74,16.65,8.09,23.18,2.12,9.94-9.07,23.16-13.27,36.2-15.87,11.68-2.32,22.64-.56,34.19,1.54,5.38.98,10.46,1.51,15.78,3.33,13.32,4.54,26.61,9.8,37.59,18.51,7.62,6.04,15.09,11.48,22.13,18.05,5.34,4.98,8.88,11.75,13.86,17.15,4.23,4.58,8.15,9.25,11.41,14.61l14.08,23.15c10.44,17.17,18.37,35.03,26.51,53.4l6.48,14.61c12.41,27.99,19.96,57.51,27.82,87.34l3.73,14.18,3.02,12.83c1.29,5.45,2.57,10.82,3.4,16.38.35,2.37.4,5.17,1.43,7.01,1.34,2.41,4.62,1.35,12.97,5.49,17.68,8.77,32.13,21.29,43.94,37.24,9.89,13.36,16.1,28.28,21,44.23,1.62,5.27,2.34,10.47,3.34,15.88,1.07,5.78,2.57,11.21,2.57,17.21,0,11-2.98,34.96-6.39,44.59l-3.17,8.95c-3.54,9.98-9.08,18.14-15.38,26.67-9.11,12.34-21.43,21.58-35.18,27.26-2.49,31.41-4.72,53.24-14.46,82.16-10.2,30.31-19.35,44.63-38.75,69.47-7.45,9.53-17.57,16.32-26.54,24.32-25.83,23.04-75.24,44.34-108.52,53.59l-16.4,4.56-10.04,2.78c-4.69,1.3-9.56,2.72-14.35,3.71l-17.34,3.55-13.59,1.99c-16.1,2.36-29,4.17-45.1,5.96l-29.06,3.24c4.02-.45-51.93,3.14-47.23,3.13l-128.65.29c-8.08,12.55-17.3,22.83-27.72,33.18l-24.89,24.71ZM685.85,177.81c7.56-.46,14.92-7.14,16.53-14.1.95-4.09.62-8.33.25-12.81-.17-2.08-4.16-3.77-6.09-4.24l-15.47-3.82c-9.17-2.26-18.01-4.49-27.41-5.54l-24.53-2.76c-7.07-.8-13.95-1.86-21.13-2.73l-12.95-1.55c-3.99-.48-8.23-.99-12.2-.99l-99.47-.06-32.4,3.87-26.07,3.18c-14.58,1.78-28.72,5.54-42.89,8.74-6.43,1.45-8.93,6.84-7.74,12.85.8,4.05,1.29,8.78,4.03,12.17,3.43,4.25,9.93,7.59,15.46,7.84l19.25.9h115.41c9.63-1.15,18.51-1.19,28.13.04l108.06.05c7.06-1.18,13.24-.56,21.23-1.05ZM363.47,893.48c-4.22,17.49-20.13,51.27-31.28,66.77-.72,1.01-1.05,3.66-.24,4.44s3.69,1.45,5.01,1.01l24.92-8.16c8.29-2.72,15.6-8.15,23.01-12.67,11.43-6.97,21.42-14.74,31.42-23.55,13.6-11.97,16.6-14.76,28.16-28.82,7.74-9.42,12.21-14.69,18.63-25.53,5.72-9.64,7.48-8.58,20.89-7.39l13.03,1.16,96.94.07,12.01-1.03,11.99-.55c16.02-.73,31.18-.67,47.06-3.12,2.53-.39,5.66-.52,8.25-.69,8.77-.58,17.06-1.87,25.86-3.06,6.39-.86,13.01-.58,19.26-2.2,5.12-1.33,10.15-1.87,15.31-2.85l13.24-2.53c18.05-3.44,35.12-8.77,52.62-14.1l9.91-3.02c17.68-5.38,34.18-12.08,50.25-21.11,16.01-8.99,23.87-13.22,38.17-24.56,27.43-21.73,45.74-53.22,54.44-86.66l3.14-12.08c2-7.69,3.04-15.12,3.95-23.18.52-4.6,2.31-9.71,2.32-14.63l.03-86.45c0-10.87-2.59-20.94-3.15-31.99l-.77-15.16-2.68-18.75c-1.07-7.51-1.72-14.18-2.68-21.62l-1.85-14.41-4.19-24.89-3.23-17.83-3.69-18.25-3.32-15.72c-1.04-4.92-2.65-9.98-3.95-14.92l-3.35-12.69-3.71-13.37-2.92-9.79-13.34-39.65c-8.09-24.05-17.76-46.87-29.77-69.13-6.57-12.18-14.25-22.73-22.05-33.97-17.86-25.75-37.38-43.88-68.17-52.74-15.9-4.57-33.8-3.8-49.85.99-4.27,1.27-7.78,3.68-6.92,9.01l1.39,8.63c2.18,13.55-4.06,28.24-14.14,37.72-11.42,10.74-15.16,11.24-30.54,16.62l-297.67.02c-22.77-5.58-41.35-15.02-46.32-39.3-1.56-7.61-2.33-14.26-.03-22,1.05-3.52-.58-8.01-4.64-8.95-3.82-.88-8.74-3.79-12.6-4.15-24.95-2.32-43.31-.83-64.72,12.28-5.52,3.38-10.1,7.9-15.11,11.78-9.45,7.31-16.4,16.01-23.78,25.22-26.89,33.6-43.7,74.19-57.63,114.21l-8.78,25.21-2.85,10.07-3.76,13.28-3.38,13.64-3.84,15.04-3.48,15.63-3.56,17.12-3.68,19.65-3.53,22.2c-1.04,6.57-1.36,12.76-2.99,19.21-.58,2.28-1.06,5.45-1.14,7.79-.25,8.05-1.71,15.16-2.89,23.12-.89,5.99-.67,12.57-1.33,18.82l-2.97,27.98-.82,12.05-1.03,13.97c-1.31,17.82-1.55,35.24-.04,53.04l1.01,11.99.97,17.04,3.45,21.11c1.25,7.65,7.15,31.23,10.14,37.11,7.83,15.39,15,31.33,26.36,44.52,20.93,24.31,33.65,33.74,61.01,49.75,20.38,11.92,63.83,27.38,87.41,32.82l15.4,3.55,18.33,3.76,19.42,3.59c10.1,1.87,11.83,14.11,8.96,22.03-1.54,4.23-2.01,8.38-3,12.46l-2.35,9.73ZM86.67,579.6l1-15.59,1.05-12.06c.43-4.91.76-10.05.86-14.95.24-11.64,1.75-22.48,2.92-34.03.85-8.3,1.11-16.05,2.92-24.27,1.1-5.01,1.14-10.47,1.84-15.76.89-6.73,4.46-14.22,1.82-16.51-4.34-3.76-21.49,14.27-24.7,17.97-7.8,9-13.23,20.01-16.23,31.51-1.3,4.98-2.37,9.39-3.94,14.29-.17,9.86-.43,19.72.15,29.76.28,4.83,2,10.09,2.95,14.99,3.04,15.78,11.49,29.52,23.03,40.42,1.23,1.16,5.46.22,5.54-1.3l.79-14.48ZM994.7,594.86c1.1-.03,3.17-1.01,4.27-1.95,13.85-11.79,21.17-28.31,23.87-46.2,1.48-9.8,3.59-19.5,1.57-29.31l-3.25-15.83c-4.28-20.8-16.98-39.99-33.17-53.28-2.52-2.07-6.61-3.02-8.82-1.25.38,3.8.86,7.26,1.4,10.75l3.26,20.97c3.15,20.23,5.97,45.65,6.62,66.24.17,5.28.47,10.69.91,15.96l1.11,13.02c.98,11.58-1.68,20.97,2.22,20.88Z"/>
  <path class="cls-1" d="M850.18,656.25c-17.52,14.29-31.64,12.57-47.07-2.37-3.94-3.82-9.61-7.7-15.08-8.48-33.18-4.73-37.5,17.57-47.79,31.93-10.21,14.25-20.48,28.39-33.17,40.77-25.86,25.21-64.28,45.42-98.98,55.09l-18.22,5.08c-5.6,1.56-10.89,2.69-16.76,3.26l-20.17,1.96c-8.71.84-17.11.81-25.93-.19l-25.95-2.95c-35.88-4.07-81.17-25.97-110.17-47.1-7.49-5.45-14.43-10.56-20.8-17.38-7.1-7.61-15.21-14.26-21.04-22.94l-16.04-23.85c-5.83-8.67-11.59-16.56-21.41-20.76s-22.24-5.48-31.19,2.21c-6.41,5.51-12.24,12.4-20.77,15.16-9.38,3.04-22.53-2.2-29.42-8.88-10.42-10.11-16.82-23.03-21.4-36.65-2.3-6.82-7.34-29.49-8.18-36.59l-3.17-26.74c-1.35-11.34-.83-50.57.79-62.63.93-6.94.89-13.31,2.1-20.15l3.22-18.26c1.67-9.46,3.75-19.16,6.77-28.23,11.49-34.62,24.76-60.41,51.5-85.63,10.39-9.8,22.7-16.76,35.66-22.53,29.87-13.3,67.37-9.21,98.6-1.59l46.65,11.38,15.36,3.67c6.61,1.58,12.87,2.73,19.63,3.47,4.57.5,9.62,2.23,14.12,2.42l21.12.92,10.09.94c9.63.89,19.24.54,28.96.04l19.05-.98c4.12-.21,8.81-.29,12.77-.96l24.86-4.23,14.89-3.26,14.45-3.29,18.12-3.99,15.79-4.08,12.19-2.94c6.33-1.53,12.1-2.64,18.73-3.4,2.91-.34,7.12-2.47,10.07-2.46l34.87.12c3.52.01,7.93,1.55,11.33,2.38l12.86,3.13c12.37,3.01,34.51,15.86,43.65,24.77,20.02,19.53,35.62,42.91,45.96,68.93s14.27,41.46,18.33,68.67l2.85,19.08c2.89,19.35-.74,67.52-3.51,89.36-.85,6.68-2.59,13.26-3.94,19.88-3.44,16.94-11.41,37.66-25.18,48.89ZM412.66,496.43c12.13,6.7,23.4,20.79,25.43,34.54,1.52,10.31,8.14,20.73,20.17,20.81,9.87.07,20.11-11.28,18-21.14-4.47-20.9-14.35-39.92-29.57-53.89-17.5-16.07-46.07-24.15-68.96-18.95-20.87,4.74-39.22,15.64-50.67,34.17-4.95,8.02-10.06,16.19-12.23,25.49l-3.71,15.85c1.53,7.21,3.42,13.93,10.41,17.99,4.7,2.73,11.15,2.18,15.37-.22,8.72-4.96,13.3-13.14,12.93-23.02,7.3-25.1,36.97-45.91,62.83-31.64ZM679.26,492.86c4.98-1.53,13.1-1.61,17.57.09,3.36,1.28,6.39,2.55,9.25,3.84,24.22,10.89,24.16,36.46,28.58,45.92,4.17,8.92,16.23,12.68,25.08,8.99,3.65-1.52,8.25-5.69,9.97-8.79l.15-23.92c-.8-1.63-2.19-4.29-2.86-5.87l-3.25-7.66c-8.9-20.96-29.86-40.41-51.49-46.76-4.23-1.24-8.65-3.02-13.26-2.63-9.4.78-19.47-1.67-28.28,1.05l-12.22,3.78c-2.09.64-5.43,2.28-7.46,3.35l-7.33,3.87c-5.04,2.66-9.96,6.38-14.45,10.31-2.32,2.03-4.07,6.15-6.1,8.65-2.88,3.55-5.22,7.05-7.25,11.01l-3.78,7.35c-1.71,3.33-2.8,6.44-3.39,10.41l-2.63,5.17c-.08,6.35-.58,12.8.26,19.02,1.19,8.76,11.31,13.47,18.91,13.07,8.83-.47,14.89-6.89,17.78-15.15,4.94-14.12-1.19-5.64,4.12-15.67,7.08-13.36,16.35-24.6,32.06-29.43Z"/>
</svg>